# AST/ASF file generated using VICON BodyLanguage
# -----------------------------------------------
:version 1.10
:name VICON
:units
  mass 1.0
  length 0.45
  angle deg
:documentation
   .ast/.asf automatically generated from VICON data using
   VICON BodyBuilder and BodyLanguage model FoxedUp or BRILLIANT.MOD
:root
   order TX TY TZ RX RY RZ
   axis XYZ
   position 0 0 0  
   orientation 0 0 0 
:bonedata
  begin
     id 1 
     name lhipjoint
     direction 0.577973 -0.728611 0.367523 
     length 2.48544 
     axis 0 0 0  XYZ
  end
  begin
     id 2 
     name lfemur
     direction 0.34202 -0.939693 0  
     length 7.1921  
     axis 0 0 20  XYZ
    dof rx ry rz
    limits (-160.0 20.0)
           (-70.0 70.0)
           (-60.0 70.0)
  end
  begin
     id 3 
     name ltibia
     direction 0.34202 -0.939693 0   
     length 7.71059   
     axis 0 0 20   XYZ
    dof rx
    limits (-10.0 170.0)
  end
  begin
     id 4 
     name lfoot
     direction 0.089538 -0.246004 0.965124   
     length 2.19909   
     axis -90 7.62852e-016 20   XYZ
    dof rx rz
    limits (-45.0 90.0)
           (-70.0 20.0)
  end
  begin
     id 5 
     name ltoes
     direction 1.53544e-011 -4.21829e-011 1   
     length 1.10116   
     axis -90 7.62852e-016 20   XYZ
    dof rx
    limits (-90.0 20.0)
  end
  begin
     id 6 
     name rhipjoint
     direction -0.554414 -0.743062 0.374812   
     length 2.4371  
     axis 0 0 0  XYZ 
  end
  begin
     id 7 
     name rfemur
     direction -0.34202 -0.939693 0   
     length 7.47254   
     axis 0 0 -20   XYZ
    dof rx ry rz
    limits (-160.0 20.0)
           (-70.0 70.0)
           (-70.0 60.0)
  end
  begin
     id 8 
     name rtibia
     direction -0.34202 -0.939693 0   
     length 7.65855   
     axis 0 0 -20   XYZ
    dof rx
    limits (-10.0 170.0)
 end
 begin
     id 9 
     name rfoot
     direction -0.133779 -0.367555 0.92033   
     length 2.43006  
     axis -90 -7.62852e-016 -20   XYZ
    dof rx rz
    limits (-45.0 90.0)
           (-20.0 70.0)
  end
  begin
     id 10 
     name rtoes
     direction -1.53563e-011 -4.21889e-011 1   
     length 1.19625   
     axis -90 -7.62852e-016 -20   XYZ
    dof rx
    limits (-90.0 20.0)
  end
  begin
     id 11 
     name lowerback
     direction 0.0249066 0.998043 -0.0573585   
     length 2.08485   
     axis 0 0 0   XYZ
    dof rx ry rz
    limits (-20.0 45.0)
           (-30.0 30.0)
           (-30.0 30.0)
  end
  begin
     id 12 
     name upperback
     direction 0.0237884 0.999673 0.00943178   
     length 2.08515   
     axis 0 0 0   XYZ
    dof rx ry rz
    limits (-20.0 45.0)
           (-30.0 30.0)
           (-30.0 30.0)
  end
  begin
     id 13 
     name thorax
     direction 0.0106671 0.999301 0.0358174   
     length 2.09037   
     axis 0 0 0   XYZ
    dof rx ry rz
    limits (-20.0 45.0)
           (-30.0 30.0)
           (-30.0 30.0)
  end
  begin
     id 14 
     name lowerneck
     direction -0.0580016 0.987052 0.149546   
     length 1.84454   
     axis 0 0 0   XYZ
    dof rx ry rz
    limits (-20.0 45.0)
           (-30.0 30.0)
           (-30.0 30.0)
  end
  begin
     id 15 
     name upperneck
     direction 0.079456 0.981963 -0.171567   
     length 1.88141   
     axis 0 0 0   XYZ
    dof rx ry rz
    limits (-20.0 45.0)
           (-30.0 30.0)
           (-30.0 30.0)
  end
  begin
     id 16
     name head
     direction 0.0262167 0.9967 -0.0768276  
     length 1.89541  
     axis 0 0 0   XYZ
    dof rx ry rz
    limits (-20.0 45.0)
           (-30.0 30.0)
           (-30.0 30.0)
  end
  begin
     id 17 
     name lclavicle
     direction 0.946135 0.322134 -0.0325326  
     length 3.949  
     axis 0 0 0   XYZ
    dof ry rz
    limits (-20.0 10.0)
           (0.0 20.0)
  end
  begin
     id 18 
     name lhumerus
     direction 1 -4.48964e-011 1.94005e-028   
     length 5.10995   
     axis 180 -30 -90   XYZ
    dof rx ry rz
    limits (-60.0 90.0)
           (-90.0 90.0)
           (-90.0 90.0)
  end
  begin
     id 19
     name lradius
     direction 1 -4.48976e-011 2.87852e-027   
     length 3.21207   
     axis 180 -30 -90   XYZ
    dof rx
    limits (-10.0 170.0)
  end
  begin
     id 20
     name lwrist
     direction 1 -4.48963e-011 1.9975e-027   
     length 1.60604   
     axis 2.96054e-016 90 90   XYZ
    dof ry
    limits (-180.0 0.0)
 end
  begin
     id 21 
     name lhand
     direction 1 -4.48919e-011 4.00227e-027   
     length 0.63349   
     axis -2.5488e-015 90 90   XYZ
    dof rx rz
    limits (-90.0 90.0)
           (-45.0 45.0)
  end
  begin
     id 22 
     name lfingers
     direction 1 -4.49037e-011 7.9652e-027   
     length 0.510736   
     axis -5.0975e-015 90 90   XYZ
    dof rx
    limits (0.0 90.0)
  end
  begin
     id 23
     name lthumb
     direction 0.707107 -6.34922e-011 0.707107   
     length 0.733318   
     axis -90 45 -4.48553e-014   XYZ
    dof rx rz
    limits (-45.0 45.0)
           (-45.0 45.0)
  end
  begin
     id 24 
     name rclavicle
     direction -0.940085 0.328911 -0.0897654   
     length 3.93848  
     axis 0 0 0   XYZ 
    dof ry rz
    limits (-10.0 20.0)
           (-20.0 0.0)
  end
  begin
     id 25 
     name rhumerus
     direction -1 -4.48958e-011 3.02044e-027  
     length 5.25109   
     axis 180 30 90   XYZ
    dof rx ry rz
    limits (-90.0 60.0)
           (-90.0 90.0)
           (-90.0 90.0)
  end
  begin
     id 26 
     name rradius
     direction -1 -4.4897e-011 9.78352e-028   
     length 3.28364   
     axis 180 30 90   XYZ
    dof rx
    limits (-10.0 170.0)
  end
  begin
     id 27 
     name rwrist
     direction -1 -4.48943e-011 1.99918e-027   
     length 1.64182   
     axis 2.96054e-016 -90 -90   XYZ
    dof ry
    limits (-180.0 0.0)
  end
  begin
     id 28
     name rhand
     direction -1 -4.49024e-011 3.98478e-027   
     length 0.599745   
     axis -2.5488e-015 -90 -90   XYZ
    dof rx rz
    limits (-90.0 90.0)
           (-45.0 45.0)
  end
  begin
     id 29
     name rfingers
     direction -1 -4.48914e-011 8.00621e-027   
     length 0.48353   
     axis -5.0975e-015 -90 -90   XYZ
    dof rx
    limits (0.0 90.0)
  end
  begin
     id 30
     name rthumb
     direction -0.707107 -6.34992e-011 0.707107   
     length 0.694255   
     axis -90 -45 4.48553e-014   XYZ
    dof rx rz
    limits (-45.0 45.0)
           (-45.0 45.0)
  end
:hierarchy
  begin
    root lhipjoint rhipjoint lowerback
    lhipjoint lfemur
    lfemur ltibia
    ltibia lfoot
    lfoot ltoes
    rhipjoint rfemur
    rfemur rtibia
    rtibia rfoot
    rfoot rtoes
    lowerback upperback
    upperback thorax
    thorax lowerneck lclavicle rclavicle
    lowerneck upperneck
    upperneck head
    lclavicle lhumerus
    lhumerus lradius
    lradius lwrist
    lwrist lhand lthumb
    lhand lfingers
    rclavicle rhumerus
    rhumerus rradius
    rradius rwrist
    rwrist rhand rthumb
    rhand rfingers
  end

#!OML:ASF E:\CV Data\Top Level 1\Subject 1\Session 1\player.ASF
:FULLY-SPECIFIED
:DEGREES
200
root 5.21576 15.4009 16.3011 -1.82546 -3.76106 -5.34855
lowerback 7.48587 0.779464 2.68716
upperback 0.248638 1.39253 3.07235
thorax -3.95695 0.667727 1.5237
lowerneck -21.2172 -7.43063 -10.2719
upperneck 17.8455 -9.25911 9.63234
head 10.1352 -3.91681 3.66296
rclavicle -1.00883e-014 1.27222e-014
rhumerus 29.6076 -1.17172 -66.1804
rradius 77.4538
rwrist 13.0496
rhand 10.7093 -7.61586
rfingers 7.12502
rthumb 35.7988 -33.9816
lclavicle -1.00883e-014 1.27222e-014
lhumerus 19.1803 3.75963 74.8179
lradius 85.4978
lwrist -28.8262
lhand 9.0358 9.93767
lfingers 7.12502
lthumb 34.2113 36.6743
rfemur -23.5177 -8.23805 20.0229
rtibia 65.9979
rfoot -36.0526 -5.79003
rtoes -12.653
lfemur -23.1817 10.9739 -8.70679
ltibia 63.9519
lfoot -32.7249 -0.329597
ltoes -13.7788
201
root 5.21598 15.4011 16.3023 -1.82385 -3.75153 -5.35985
lowerback 7.48205 0.777365 2.68612
upperback 0.250193 1.3894 3.0725
thorax -3.95319 0.666232 1.52483
lowerneck -21.2095 -7.43204 -10.2751
upperneck 17.8392 -9.26445 9.64934
head 10.1333 -3.91787 3.66878
rclavicle 4.72114e-016 -7.95139e-016
rhumerus 29.6121 -1.17654 -66.1767
rradius 77.4505
rwrist 13.0681
rhand 10.7001 -7.60847
rfingers 7.12502
rthumb 35.7901 -33.9763
lclavicle 4.72114e-016 -7.95139e-016
lhumerus 19.1993 3.75064 74.8141
lradius 85.4931
lwrist -28.8249
lhand 9.03241 9.93531
lfingers 7.12502
lthumb 34.208 36.6726
rfemur -23.5102 -8.24702 20.0333
rtibia 65.9916
rfoot -36.0511 -5.79089
rtoes -12.6585
lfemur -23.1808 10.9682 -8.69536
ltibia 63.952
lfoot -32.7261 -0.332917
ltoes -13.7688
202
root 5.21617 15.4012 16.3037 -1.82289 -3.74257 -5.37017
lowerback 7.47903 0.775021 2.68298
upperback 0.250057 1.38587 3.07235
thorax -3.95168 0.664554 1.52685
lowerneck -21.1948 -7.43371 -10.2787
upperneck 17.834 -9.27081 9.66615
head 10.1307 -3.91965 3.67456
rclavicle 3.10601e-016 -1.23246e-014
rhumerus 29.6137 -1.17964 -66.1737
rradius 77.4492
rwrist 13.0804
rhand 10.6939 -7.60708
rfingers 7.12502
rthumb 35.7842 -33.9763
lclavicle 3.10601e-016 -1.23246e-014
lhumerus 19.2155 3.7425 74.8095
lradius 85.487
lwrist -28.8232
lhand 9.03341 9.93407
lfingers 7.12502
lthumb 34.209 36.6712
rfemur -23.5012 -8.25405 20.0426
rtibia 65.9852
rfoot -36.0515 -5.79105
rtoes -12.6615
lfemur -23.1784 10.9623 -8.68499
ltibia 63.9524
lfoot -32.7282 -0.333798
ltoes -13.7642
203
root 5.21632 15.4012 16.305 -1.8213 -3.73596 -5.38082
lowerback 7.47446 0.772914 2.67869
upperback 0.249559 1.38251 3.07247
thorax -3.94971 0.662986 1.5298
lowerneck -21.1824 -7.43537 -10.281
upperneck 17.8336 -9.27746 9.68186
head 10.1301 -3.92151 3.67971
rclavicle 1.61513e-015 -7.55382e-015
rhumerus 29.6142 -1.18199 -66.172
rradius 77.4493
rwrist 13.0819
rhand 10.6894 -7.61004
rfingers 7.12502
rthumb 35.7799 -33.9803
lclavicle 1.61513e-015 -7.55382e-015
lhumerus 19.2308 3.73613 74.8042
lradius 85.4791
lwrist -28.8212
lhand 9.03199 9.93103
lfingers 7.12502
lthumb 34.2076 36.6685
rfemur -23.493 -8.25715 20.0529
rtibia 65.9784
rfoot -36.0529 -5.79188
rtoes -12.6634
lfemur -23.1765 10.9602 -8.6735
ltibia 63.9534
lfoot -32.7312 -0.33649
ltoes -13.7575
204
root 5.21652 15.4014 16.3068 -1.82168 -3.73296 -5.39004
lowerback 7.47157 0.771615 2.67421
upperback 0.247988 1.3803 3.0717
thorax -3.94978 0.661966 1.53178
lowerneck -21.1687 -7.43836 -10.2816
upperneck 17.8341 -9.28582 9.69358
head 10.1295 -3.9245 3.68286
rclavicle 1.11816e-016 7.15625e-015
rhumerus 29.6107 -1.18493 -66.1729
rradius 77.4505
rwrist 13.0763
rhand 10.6901 -7.61278
rfingers 7.12502
rthumb 35.7806 -33.9829
lclavicle 1.11816e-016 7.15625e-015
lhumerus 19.2442 3.72921 74.7979
lradius 85.4711
lwrist -28.8166
lhand 9.03185 9.93427
lfingers 7.12502
lthumb 34.2075 36.6717
rfemur -23.4795 -8.25651 20.0607
rtibia 65.9687
rfoot -36.0555 -5.79138
rtoes -12.6639
lfemur -23.1674 10.96 -8.6634
ltibia 63.9521
lfoot -32.7368 -0.331976
ltoes -13.7704
